# xmcd CD database file
#
# Track frame offsets:
#	150
#	9755
#	23203
#	33384
#	51171
#	61612
#	72951
#	89137
#	100997
#	182957
#	242954
#
# Disc length: 3651 seconds
#
# Revision: 0
# Processed by: cddbd v1.5PL3 Copyright (c) Steve Scherf et al.
# Submitted via: CDex 1.51
#
DISCID=8f0e410b
DTITLE=Nikolai Kapustin - Kasptin Plays Kasputin Vol.1
DYEAR=2000
DGENRE=Jazz
TTITLE0=Eight Concert Etudes Op.40 - 01_Prelude
TTITLE1=Eight Concert Etudes Op.40 - 02_Reverie
TTITLE2=Eight Concert Etudes Op.40 - 03_Toccatina
TTITLE3=Eight Concert Etudes Op.40 - 04_Rememberance
TTITLE4=Eight Concert Etudes Op.40 - 05_Raillery
TTITLE5=Eight Concert Etudes Op.40 - 06_Pastoral
TTITLE6=Eight Concert Etudes Op.40 - 07_Intermezzo
TTITLE7=Eight Concert Etudes Op.40 - 08_Finale
TTITLE8=Sonata Fantasy Op.39
TTITLE9=Suite in Old Style Op.28
TTITLE10=Variations Op.41
EXTD=YEAR: 2000
EXTT0=
EXTT1=
EXTT2=
EXTT3=
EXTT4=
EXTT5=
EXTT6=
EXTT7=
EXTT8=
EXTT9=
EXTT10=
PLAYORDER=
